<svg xmlns="http://www.w3.org/2000/svg" viewBox="0 0 1201.97 741.36"><defs><style>.cls-1,.cls-10,.cls-2,.cls-3,.cls-4,.cls-9{fill:none;}.cls-1,.cls-10,.cls-3,.cls-4{stroke:#fff;}.cls-1,.cls-2,.cls-3,.cls-4,.cls-9{stroke-miterlimit:10;}.cls-1{stroke-width:62px;}.cls-2,.cls-9{stroke:#f1f2f2;}.cls-2{stroke-width:4px;}.cls-3{stroke-width:101px;}.cls-4{stroke-width:80px;}.cls-5{font-size:60px;font-family:Montserrat-Light, Montserrat;font-weight:300;letter-spacing:0.03em;}.cls-5,.cls-8{fill:#d3dcd9;}.cls-6{letter-spacing:0.02em;}.cls-7{letter-spacing:0.03em;}.cls-10,.cls-9{stroke-width:2px;}.cls-10{stroke-linecap:round;stroke-linejoin:round;}</style></defs><g id="Layer_2" data-name="Layer 2"><g id="Layer_1-2" data-name="Layer 1"><circle class="cls-1" cx="607.05" cy="346.11" r="83.06"/><rect class="cls-2" x="2" y="2" width="737.36" height="737.36" transform="translate(741.36 0) rotate(90)"/><circle class="cls-3" cx="916.48" cy="524.46" r="162.08"/><circle class="cls-4" cx="807.65" cy="152.29" r="99.53"/><text class="cls-5" transform="translate(178.07 554.78)">Door</text><text class="cls-5" transform="translate(1009.56 253.75)">C<tspan class="cls-6" x="44.76" y="0">r</tspan><tspan class="cls-7" x="69.36" y="0">edit</tspan></text><path class="cls-8" d="M916.71,578.78a62.86,62.86,0,0,1-22.57-4q-10.64-4.07-16.45-10.49l3.52-5.81q5.5,5.66,15.07,9.56a53.14,53.14,0,0,0,20.27,3.91q10.71,0,17.52-2.84t10.1-7.57a18.05,18.05,0,0,0,3.29-10.56q0-6.88-3.67-11a25.81,25.81,0,0,0-9.64-6.58,89.49,89.49,0,0,0-13-4.13q-7-1.68-14.23-3.59a65.69,65.69,0,0,1-13.16-5,25.36,25.36,0,0,1-9.56-8.33q-3.6-5.28-3.6-13.7a26.28,26.28,0,0,1,4-14.08q4-6.42,12.4-10.4t21.57-4a60.6,60.6,0,0,1,17.52,2.6,49,49,0,0,1,14.77,7l-2.91,6.27a50.1,50.1,0,0,0-14.46-6.81A54.3,54.3,0,0,0,918.54,477q-10.24,0-17,2.91a22,22,0,0,0-9.95,7.73,19,19,0,0,0-3.21,10.79q0,6.89,3.59,11a24.92,24.92,0,0,0,9.57,6.58,86.64,86.64,0,0,0,13.16,4.14q7.18,1.68,14.23,3.59a67.57,67.57,0,0,1,13,5,26.23,26.23,0,0,1,9.64,8.27q3.67,5.21,3.68,13.46a25.58,25.58,0,0,1-4.14,14Q947,571,938.51,574.88T916.71,578.78Zm-2.61,17.6V452.54h5.67V596.38Z"/><path class="cls-9" d="M123.53,702.69c22.95-11,59.86-32.76,91.26-73a250.9,250.9,0,0,0,32.45-54.76"/><polygon class="cls-10" points="807.65 122.7 807.65 163.11 785.04 152.34 807.65 122.7"/><polygon class="cls-10" points="807.65 122.7 807.65 163.11 830.26 152.34 807.65 122.7"/><polygon class="cls-10" points="807.65 163.1 785.04 152.33 807.65 181.88 807.65 163.1"/><polygon class="cls-10" points="807.65 163.1 830.26 152.33 807.65 181.88 807.65 163.1"/><line class="cls-10" x1="609.17" y1="365.57" x2="609.17" y2="373.85"/><line class="cls-10" x1="609.17" y1="318.37" x2="609.17" y2="326.65"/><line class="cls-10" x1="600.16" y1="318.37" x2="600.16" y2="373.85"/><path class="cls-10" d="M592.64,326.65h19.14a9.69,9.69,0,0,1,9.68,9.68v.1a9.68,9.68,0,0,1-9.68,9.68H600.16"/><path class="cls-10" d="M600.16,346.11h11.62a9.69,9.69,0,0,1,9.68,9.68v.1a9.68,9.68,0,0,1-9.68,9.68H592.64"/><path class="cls-9" d="M1128.46,184.65a243.35,243.35,0,0,0-145-94"/><path class="cls-9" d="M1150.16,289a130.56,130.56,0,0,1-40.85,81.7"/></g></g></svg>