<svg xmlns="http://www.w3.org/2000/svg" xmlns:xlink="http://www.w3.org/1999/xlink" viewBox="0 0 3041.76 965.4"><defs><style>.cls-1,.cls-3,.cls-4,.cls-5{fill:none;}.cls-2{clip-path:url(#clip-path);}.cls-3,.cls-5{stroke:#f15a27;}.cls-3,.cls-4,.cls-5{stroke-miterlimit:10;}.cls-3{stroke-width:80px;}.cls-4{stroke:#2a564c;stroke-width:62px;}.cls-5{stroke-width:101px;}.cls-6{fill:#606161;}.cls-7{fill:#231f20;}</style><clipPath id="clip-path" transform="translate(106.19 168.96)"><rect className="cls-1" width="358.57" height="358.57" transform="translate(358.57 0) rotate(90)"/></clipPath></defs><g id="Layer_2" data-name="Layer 2"><g id="Layer_1-2" data-name="Layer 1"><g className="cls-2"><circle className="cls-3" cx="314.55" cy="139.56" r="99.53"/><circle className="cls-4" cx="114.08" cy="333.37" r="83.06"/><circle className="cls-5" cx="423.51" cy="511.72" r="162.08"/><rect className="cls-6" x="2309.05" y="17.18" width="732.71" height="948.22"/></g><path className="cls-7" d="M568.67,66q-27.1,15.66-42.75,45.08t-15.65,68.21q0,40.19,15.19,69.37t42,44.38q26.87,15.19,61.43,15.19,54.2,0,84.33-28.73t40.41-75.92L791.51,219q-8.4,37.38-29.9,66.34a150.18,150.18,0,0,1-55.12,45.55q-33.65,16.58-77.56,16.58-49,0-86.19-22a149.41,149.41,0,0,1-57.23-60q-20.08-38.07-20.09-86.19,0-47.19,21.26-85.73a156.42,156.42,0,0,1,58.63-60.5q37.37-21.95,83.62-22,59.8,0,96,30.84t48.82,78l-39.24,17.75Q726.11,98.47,699,74.41T628.93,50.35Q595.77,50.35,568.67,66Z" transform="translate(106.19 168.96)"/><path className="cls-7" d="M878.87,121.36v32.23q7.47-17.75,22-27.33t34.57-9.57q27.09,0,43.91,17.51T996.13,177a101.94,101.94,0,0,1-2.8,24.76H954.08a118.57,118.57,0,0,0,1.41-16.35q0-15.42-9.58-24.29T920,152.19q-18.69,0-29.9,13.55t-11.21,36V342.8H838.69V121.36Z" transform="translate(106.19 168.96)"/><path className="cls-7" d="M1179.73,299.12q15.88-12.84,22.43-36.68l35,13.55q-11.2,33.64-36,52.56t-63.07,18.92q-32.24,0-57.69-14.25a99.73,99.73,0,0,1-39.71-40.64q-14.26-26.38-14.25-61.9,0-31.77,13.08-57.7a101.71,101.71,0,0,1,37.14-41.11q24.06-15.18,55.36-15.18,44.37,0,71.48,25.46t27.09,68.91a124.66,124.66,0,0,1-2.8,27.09H1067.61q.47,36,20.79,54.89T1138.15,312Q1163.84,312,1179.73,299.12ZM1088.4,167.61q-17.52,15.42-20.79,41.58h122.87l.46-6.54q0-23.84-17-37.14t-42.28-13.32Q1105.92,152.19,1088.4,167.61Z" transform="translate(106.19 168.96)"/><path className="cls-7" d="M1320.11,333.22Q1296.52,319,1283.44,293t-13.08-59.56q0-34.09,13.08-60.73t36.44-41.35q23.36-14.72,53.25-14.71,25.69,0,45.32,12.14a83.07,83.07,0,0,1,30.37,32.7V15.78h40.64v327h-38.77V303.09a86.38,86.38,0,0,1-31.3,32.23q-20.1,12.15-45.32,12.15Q1343.7,347.47,1320.11,333.22Zm93.9-30.83q16.13-9.12,26.4-27.1T1450.69,233q0-24.28-10.28-42.51T1414,162.7a64.29,64.29,0,0,0-67.5,0q-15.9,9.59-25.93,27.57t-10,42.74q0,24.77,9.82,42.52t25.92,26.86a68.74,68.74,0,0,0,34.34,9.11A67,67,0,0,0,1414,302.39Z" transform="translate(106.19 168.96)"/><path className="cls-7" d="M1591.54,332.29a105,105,0,0,1-39.48-41.35q-14-26.16-14-58.86t14-58.87a105.06,105.06,0,0,1,39.48-41.34q25.45-15.18,58.63-15.18T1709,131.87a104.54,104.54,0,0,1,39.71,41.34q14,26.17,14,58.87t-14.25,58.86a106.65,106.65,0,0,1-39.71,41.35q-25.47,15.18-58.63,15.18T1591.54,332.29Zm109.79-43.22q19.85-21.94,19.85-57,0-34.58-19.85-56.76t-51.16-22.19q-20.57,0-36.67,10a68.86,68.86,0,0,0-25.23,28q-9.12,18-9.11,40.88t9.11,40.88a68.86,68.86,0,0,0,25.23,28q16.11,10,36.67,10Q1681.46,311,1701.33,289.07Z" transform="translate(106.19 168.96)"/><path className="cls-7" d="M1851.52,121.36v32.23q7.47-17.75,22-27.33t34.57-9.57q27.09,0,43.92,17.51T1968.78,177a101.94,101.94,0,0,1-2.8,24.76h-39.24a119.93,119.93,0,0,0,1.4-16.35q0-15.42-9.58-24.29t-25.93-8.88q-18.69,0-29.9,13.55t-11.21,36V342.8h-40.17V121.36Z" transform="translate(106.19 168.96)"/><path className="cls-7" d="M2152.38,299.12q15.88-12.84,22.43-36.68l35,13.55q-11.22,33.64-36,52.56t-63.07,18.92q-32.24,0-57.69-14.25a99.8,99.8,0,0,1-39.71-40.64q-14.26-26.38-14.25-61.9,0-31.77,13.08-57.7a101.85,101.85,0,0,1,37.14-41.11q24.06-15.18,55.36-15.18,44.39,0,71.48,25.46t27.1,68.91a124.65,124.65,0,0,1-2.81,27.09H2040.26q.46,36,20.79,54.89T2110.8,312Q2136.5,312,2152.38,299.12Zm-91.33-131.51q-17.52,15.42-20.79,41.58h122.87l.47-6.54q0-23.84-17.06-37.14t-42.28-13.32Q2078.57,152.19,2061.05,167.61Z" transform="translate(106.19 168.96)"/></g></g></svg>