<?xml version="1.0" encoding="UTF-8"?><svg id="Layer_2" xmlns="http://www.w3.org/2000/svg" viewBox="0 0 128.74 137.66"><defs><style>.cls-1{stroke-linecap:round;stroke-width:2.72px;}.cls-1,.cls-2{stroke:#dfad64;}.cls-1,.cls-2,.cls-3{fill:none;}.cls-1,.cls-3{stroke-miterlimit:10;}.cls-2{stroke-linecap:square;stroke-linejoin:round;}.cls-2,.cls-3{stroke-width:2.75px;}.cls-3{stroke:#fff;}</style></defs><g id="Desktop"><polygon className="cls-2" points="17.05 20.84 21.9 30.66 32.73 32.23 24.89 39.88 26.74 50.67 17.05 45.57 7.36 50.67 9.21 39.88 1.37 32.23 12.21 30.66 17.05 20.84"/><polygon className="cls-2" points="63.29 1.37 68.13 11.19 78.97 12.77 71.13 20.41 72.98 31.2 63.29 26.1 53.6 31.2 55.45 20.41 47.61 12.77 58.44 11.19 63.29 1.37"/><polygon className="cls-2" points="109.52 20.84 114.37 30.66 125.2 32.23 117.36 39.88 119.22 50.67 109.52 45.57 99.83 50.67 101.68 39.88 93.85 32.23 104.68 30.66 109.52 20.84"/><circle className="cls-3" cx="64.03" cy="90.86" r="45.42"/><ellipse className="cls-3" cx="64.03" cy="90.86" rx="30.82" ry="45.42"/><ellipse className="cls-3" cx="64.03" cy="90.86" rx="13.99" ry="45.42"/><line className="cls-3" x1="25.83" y1="66.29" x2="102.24" y2="66.29"/><line className="cls-3" x1="103.29" y1="113.73" x2="24.78" y2="113.73"/><circle className="cls-1" cx="103.55" cy="114.44" r="21.18"/><polyline className="cls-1" points="127.37 93.26 105.82 120.49 96.36 113.69"/></g></svg>