<svg xmlns="http://www.w3.org/2000/svg" xmlns:xlink="http://www.w3.org/1999/xlink" width="500" zoomAndPan="magnify" viewBox="0 0 375 374.999991" height="500" preserveAspectRatio="xMidYMid meet" version="1.0"><defs><g/><clipPath id="e3d0b7ab9f"><path d="M 54.433594 95.355469 L 121.640625 95.355469 L 121.640625 162.566406 L 54.433594 162.566406 Z M 54.433594 95.355469 " clip-rule="nonzero"/></clipPath><clipPath id="7c98910172"><path d="M 88.039062 95.355469 C 69.476562 95.355469 54.433594 110.402344 54.433594 128.960938 C 54.433594 147.519531 69.476562 162.566406 88.039062 162.566406 C 106.597656 162.566406 121.640625 147.519531 121.640625 128.960938 C 121.640625 110.402344 106.597656 95.355469 88.039062 95.355469 " clip-rule="nonzero"/></clipPath><clipPath id="8234caceb3"><path d="M 73.121094 118.796875 L 102.957031 118.796875 L 102.957031 148.632812 L 73.121094 148.632812 Z M 73.121094 118.796875 " clip-rule="nonzero"/></clipPath><clipPath id="4f03440484"><path d="M 88.039062 118.796875 C 79.796875 118.796875 73.121094 125.476562 73.121094 133.714844 C 73.121094 141.957031 79.796875 148.632812 88.039062 148.632812 C 96.277344 148.632812 102.957031 141.957031 102.957031 133.714844 C 102.957031 125.476562 96.277344 118.796875 88.039062 118.796875 " clip-rule="nonzero"/></clipPath><clipPath id="f1a19f75a1"><path d="M 72.183594 162.566406 L 153.960938 162.566406 L 153.960938 244.34375 L 72.183594 244.34375 Z M 72.183594 162.566406 " clip-rule="nonzero"/></clipPath><clipPath id="aa175579db"><path d="M 113.070312 162.566406 C 90.488281 162.566406 72.183594 180.871094 72.183594 203.453125 C 72.183594 226.039062 90.488281 244.34375 113.070312 244.34375 C 135.65625 244.34375 153.960938 226.039062 153.960938 203.453125 C 153.960938 180.871094 135.65625 162.566406 113.070312 162.566406 " clip-rule="nonzero"/></clipPath><clipPath id="03361fce2b"><path d="M 91.300781 181.683594 L 134.84375 181.683594 L 134.84375 225.226562 L 91.300781 225.226562 Z M 91.300781 181.683594 " clip-rule="nonzero"/></clipPath><clipPath id="a81651dacd"><path d="M 113.070312 181.683594 C 101.050781 181.683594 91.300781 191.433594 91.300781 203.453125 C 91.300781 215.476562 101.050781 225.226562 113.070312 225.226562 C 125.09375 225.226562 134.84375 215.476562 134.84375 203.453125 C 134.84375 191.433594 125.09375 181.683594 113.070312 181.683594 " clip-rule="nonzero"/></clipPath><clipPath id="ca870bdf61"><path d="M 54.433594 95.355469 L 121.640625 95.355469 L 121.640625 142.242188 L 54.433594 142.242188 Z M 54.433594 95.355469 " clip-rule="nonzero"/></clipPath><clipPath id="658ac3e186"><path d="M 117.785156 156.582031 L 182.328125 156.582031 L 182.328125 250.328125 L 117.785156 250.328125 Z M 117.785156 156.582031 " clip-rule="nonzero"/></clipPath><clipPath id="029249a10d"><path d="M 24.335938 151.417969 L 72.183594 151.417969 L 72.183594 199.265625 L 24.335938 199.265625 Z M 24.335938 151.417969 " clip-rule="nonzero"/></clipPath><clipPath id="b3921b4c6b"><path d="M 24.335938 175.34375 C 24.335938 188.554688 35.046875 199.265625 48.261719 199.265625 C 61.472656 199.265625 72.183594 188.554688 72.183594 175.34375 C 72.183594 162.128906 61.472656 151.417969 48.261719 151.417969 C 35.046875 151.417969 24.335938 162.128906 24.335938 175.34375 " clip-rule="nonzero"/></clipPath><clipPath id="624127d62b"><path d="M 36.546875 163.628906 L 59.972656 163.628906 L 59.972656 187.054688 L 36.546875 187.054688 Z M 36.546875 163.628906 " clip-rule="nonzero"/></clipPath><clipPath id="55b7f62069"><path d="M 36.546875 175.339844 C 36.546875 181.808594 41.792969 187.054688 48.261719 187.054688 C 54.726562 187.054688 59.972656 181.808594 59.972656 175.339844 C 59.972656 168.871094 54.726562 163.628906 48.261719 163.628906 C 41.792969 163.628906 36.546875 168.871094 36.546875 175.339844 " clip-rule="nonzero"/></clipPath><clipPath id="e9fa715ebf"><path d="M 12.761719 137.992188 L 45.492188 137.992188 L 45.492188 203.453125 L 12.761719 203.453125 Z M 12.761719 137.992188 " clip-rule="nonzero"/></clipPath><clipPath id="e341d2b70d"><path d="M 63.207031 207.652344 L 130 207.652344 L 130 279.640625 L 63.207031 279.640625 Z M 63.207031 207.652344 " clip-rule="nonzero"/></clipPath></defs><g clip-path="url(#e3d0b7ab9f)"><g clip-path="url(#7c98910172)"><path fill="#f15928" d="M 54.433594 95.355469 L 121.640625 95.355469 L 121.640625 162.566406 L 54.433594 162.566406 Z M 54.433594 95.355469 " fill-opacity="1" fill-rule="nonzero"/></g></g><g clip-path="url(#8234caceb3)"><g clip-path="url(#4f03440484)"><path fill="#ffffff" d="M 73.121094 118.796875 L 102.957031 118.796875 L 102.957031 148.632812 L 73.121094 148.632812 Z M 73.121094 118.796875 " fill-opacity="1" fill-rule="nonzero"/></g></g><g clip-path="url(#f1a19f75a1)"><g clip-path="url(#aa175579db)"><path fill="#f15928" d="M 72.183594 162.566406 L 153.960938 162.566406 L 153.960938 244.34375 L 72.183594 244.34375 Z M 72.183594 162.566406 " fill-opacity="1" fill-rule="nonzero"/></g></g><g clip-path="url(#03361fce2b)"><g clip-path="url(#a81651dacd)"><path fill="#ffffff" d="M 91.300781 181.683594 L 134.84375 181.683594 L 134.84375 225.226562 L 91.300781 225.226562 Z M 91.300781 181.683594 " fill-opacity="1" fill-rule="nonzero"/></g></g><g clip-path="url(#ca870bdf61)"><path fill="#ffffff" d="M 54.433594 95.355469 L 121.640625 95.355469 L 121.640625 142.261719 L 54.433594 142.261719 Z M 54.433594 95.355469 " fill-opacity="1" fill-rule="nonzero"/></g><g clip-path="url(#658ac3e186)"><path fill="#ffffff" d="M 117.785156 156.582031 L 182.277344 156.582031 L 182.277344 250.320312 L 117.785156 250.320312 Z M 117.785156 156.582031 " fill-opacity="1" fill-rule="nonzero"/></g><g clip-path="url(#029249a10d)"><g clip-path="url(#b3921b4c6b)"><path fill="#29564b" d="M 24.335938 199.265625 L 24.335938 151.417969 L 72.183594 151.417969 L 72.183594 199.265625 Z M 24.335938 199.265625 " fill-opacity="1" fill-rule="nonzero"/></g></g><g clip-path="url(#624127d62b)"><g clip-path="url(#55b7f62069)"><path fill="#ffffff" d="M 36.546875 187.054688 L 36.546875 163.628906 L 59.972656 163.628906 L 59.972656 187.054688 Z M 36.546875 187.054688 " fill-opacity="1" fill-rule="nonzero"/></g></g><g clip-path="url(#e9fa715ebf)"><path fill="#ffffff" d="M 12.761719 203.453125 L 12.761719 137.992188 L 45.492188 137.992188 L 45.492188 203.453125 Z M 12.761719 203.453125 " fill-opacity="1" fill-rule="nonzero"/></g><g clip-path="url(#e341d2b70d)"><path fill="#ffffff" d="M 63.207031 279.640625 L 63.207031 207.652344 L 129.949219 207.652344 L 129.949219 279.640625 Z M 63.207031 279.640625 " fill-opacity="1" fill-rule="nonzero"/></g><g fill="#000000" fill-opacity="1"><g transform="translate(135.619989, 194.263933)"><g><path d="M 39.167969 -11.65625 L 34.851562 -11.65625 C 33.507812 -9.191406 31.660156 -7.171875 29.304688 -5.714844 C 26.953125 -4.203125 24.320312 -3.472656 21.515625 -3.472656 C 17.316406 -3.472656 13.726562 -4.988281 10.757812 -8.125 C 7.84375 -11.09375 6.445312 -14.738281 6.445312 -18.996094 C 6.445312 -23.253906 7.84375 -26.898438 10.757812 -29.921875 C 12.101562 -31.324219 13.726562 -32.445312 15.578125 -33.285156 C 17.371094 -34.125 19.164062 -34.574219 20.957031 -34.574219 C 22.695312 -34.574219 24.207031 -34.347656 25.550781 -33.957031 C 29.640625 -32.722656 32.722656 -30.257812 34.796875 -26.503906 L 39.113281 -26.503906 C 37.65625 -30.089844 35.359375 -33.003906 32.164062 -35.246094 C 28.914062 -37.488281 25.382812 -38.609375 21.515625 -38.609375 C 16.195312 -38.609375 11.710938 -36.648438 8.011719 -32.78125 C 6.277344 -30.988281 4.929688 -28.859375 3.976562 -26.503906 C 2.96875 -24.152344 2.523438 -21.628906 2.523438 -18.996094 C 2.523438 -13.617188 4.316406 -9.078125 8.011719 -5.265625 C 11.710938 -1.34375 16.195312 0.558594 21.515625 0.558594 C 25.382812 0.558594 28.914062 -0.558594 32.21875 -2.800781 C 35.414062 -5.042969 37.710938 -7.957031 39.167969 -11.65625 Z M 39.167969 -11.65625 "/></g></g></g><g fill="#000000" fill-opacity="1"><g transform="translate(176.467624, 194.263933)"><g><path d="M 16.867188 -19.554688 L 16.867188 -24.65625 C 16.082031 -24.992188 15.242188 -25.160156 14.402344 -25.160156 C 11.597656 -25.160156 9.582031 -23.589844 8.292969 -20.566406 L 8.125 -19.554688 L 8.125 -24.65625 L 4.203125 -24.65625 L 4.203125 0 L 8.125 0 L 8.125 -12.328125 C 8.125 -14.34375 8.574219 -16.136719 9.527344 -17.761719 C 9.972656 -18.601562 10.589844 -19.332031 11.320312 -19.890625 C 12.046875 -20.453125 12.945312 -20.789062 13.953125 -20.789062 C 14.960938 -20.789062 15.914062 -20.339844 16.867188 -19.554688 Z M 16.867188 -19.554688 "/></g></g></g><g fill="#000000" fill-opacity="1"><g transform="translate(193.893707, 194.263933)"><g><path d="M 28.296875 -12.886719 C 28.296875 -16.25 26.953125 -19.164062 24.375 -21.683594 C 21.851562 -24.09375 18.828125 -25.328125 15.410156 -25.328125 C 11.824219 -25.328125 8.796875 -24.039062 6.277344 -21.515625 C 3.753906 -18.996094 2.523438 -15.96875 2.523438 -12.441406 C 2.523438 -8.851562 3.753906 -5.828125 6.277344 -3.363281 C 7.453125 -2.183594 8.796875 -1.289062 10.367188 -0.617188 C 11.933594 0.0546875 13.785156 0.390625 15.96875 0.390625 C 18.15625 0.390625 20.285156 -0.28125 22.414062 -1.625 C 24.542969 -2.96875 26.113281 -4.875 27.175781 -7.226562 L 22.695312 -7.226562 C 21.796875 -6.050781 20.734375 -5.15625 19.445312 -4.484375 C 18.15625 -3.808594 16.808594 -3.53125 15.410156 -3.53125 C 13.28125 -3.53125 11.375 -4.203125 9.695312 -5.601562 C 8.011719 -6.949219 6.949219 -8.683594 6.613281 -10.816406 L 28.296875 -10.816406 Z M 24.152344 -14.175781 L 6.667969 -14.175781 C 6.890625 -15.183594 7.285156 -16.136719 7.84375 -17.035156 C 9.636719 -19.949219 12.160156 -21.40625 15.410156 -21.40625 C 17.484375 -21.40625 19.332031 -20.734375 20.957031 -19.386719 C 22.636719 -17.988281 23.648438 -16.25 24.152344 -14.175781 Z M 24.152344 -14.175781 "/></g></g></g><g fill="#000000" fill-opacity="1"><g transform="translate(224.431375, 194.263933)"><g><path d="M 23.816406 -12.328125 C 23.816406 -9.917969 22.972656 -7.789062 21.292969 -6.050781 C 19.613281 -4.257812 17.539062 -3.363281 15.128906 -3.363281 C 12.664062 -3.363281 10.589844 -4.257812 8.910156 -6.050781 C 7.226562 -7.789062 6.445312 -9.917969 6.445312 -12.328125 C 6.445312 -14.679688 7.226562 -16.808594 8.910156 -18.601562 C 10.589844 -20.398438 12.664062 -21.292969 15.128906 -21.292969 C 17.539062 -21.292969 19.613281 -20.398438 21.292969 -18.601562 C 22.972656 -16.808594 23.816406 -14.679688 23.816406 -12.328125 Z M 27.738281 0 L 27.738281 -42.027344 L 23.816406 -42.027344 L 23.816406 -20.398438 C 23.589844 -20.734375 23.308594 -21.011719 23.085938 -21.292969 C 20.734375 -23.871094 17.875 -25.214844 14.511719 -25.214844 C 11.09375 -25.214844 8.238281 -23.871094 5.882812 -21.292969 C 3.640625 -18.714844 2.523438 -15.746094 2.523438 -12.328125 C 2.523438 -8.851562 3.640625 -5.882812 5.882812 -3.363281 C 8.238281 -0.726562 11.09375 0.558594 14.511719 0.558594 C 17.875 0.558594 20.734375 -0.726562 23.085938 -3.363281 C 23.308594 -3.585938 23.589844 -3.867188 23.816406 -4.203125 L 23.816406 0 Z M 27.738281 0 "/></g></g></g><g fill="#000000" fill-opacity="1"><g transform="translate(256.369858, 194.263933)"><g><path d="M 24.375 -12.441406 C 24.375 -9.972656 23.476562 -7.902344 21.742188 -6.164062 C 19.949219 -4.371094 17.875 -3.53125 15.410156 -3.53125 C 12.945312 -3.53125 10.816406 -4.371094 9.078125 -6.164062 C 7.285156 -7.902344 6.445312 -9.972656 6.445312 -12.441406 C 6.445312 -14.90625 7.285156 -16.976562 9.078125 -18.773438 C 10.816406 -20.507812 12.945312 -21.40625 15.410156 -21.40625 C 17.875 -21.40625 19.949219 -20.507812 21.742188 -18.773438 C 23.476562 -16.976562 24.375 -14.90625 24.375 -12.441406 Z M 28.296875 -12.441406 C 28.296875 -15.96875 27.007812 -18.996094 24.488281 -21.515625 C 21.964844 -24.039062 18.941406 -25.328125 15.410156 -25.328125 C 11.824219 -25.328125 8.796875 -24.039062 6.277344 -21.515625 C 3.753906 -18.996094 2.523438 -15.96875 2.523438 -12.441406 C 2.523438 -8.851562 3.753906 -5.828125 6.277344 -3.363281 C 8.796875 -0.839844 11.878906 0.390625 15.410156 0.390625 C 18.882812 0.390625 21.964844 -0.839844 24.488281 -3.363281 C 27.007812 -5.828125 28.296875 -8.851562 28.296875 -12.441406 Z M 28.296875 -12.441406 "/></g></g></g><g fill="#000000" fill-opacity="1"><g transform="translate(287.187679, 194.263933)"><g><path d="M 16.867188 -19.554688 L 16.867188 -24.65625 C 16.082031 -24.992188 15.242188 -25.160156 14.402344 -25.160156 C 11.597656 -25.160156 9.582031 -23.589844 8.292969 -20.566406 L 8.125 -19.554688 L 8.125 -24.65625 L 4.203125 -24.65625 L 4.203125 0 L 8.125 0 L 8.125 -12.328125 C 8.125 -14.34375 8.574219 -16.136719 9.527344 -17.761719 C 9.972656 -18.601562 10.589844 -19.332031 11.320312 -19.890625 C 12.046875 -20.453125 12.945312 -20.789062 13.953125 -20.789062 C 14.960938 -20.789062 15.914062 -20.339844 16.867188 -19.554688 Z M 16.867188 -19.554688 "/></g></g></g><g fill="#000000" fill-opacity="1"><g transform="translate(304.613763, 194.263933)"><g><path d="M 28.296875 -12.886719 C 28.296875 -16.25 26.953125 -19.164062 24.375 -21.683594 C 21.851562 -24.09375 18.828125 -25.328125 15.410156 -25.328125 C 11.824219 -25.328125 8.796875 -24.039062 6.277344 -21.515625 C 3.753906 -18.996094 2.523438 -15.96875 2.523438 -12.441406 C 2.523438 -8.851562 3.753906 -5.828125 6.277344 -3.363281 C 7.453125 -2.183594 8.796875 -1.289062 10.367188 -0.617188 C 11.933594 0.0546875 13.785156 0.390625 15.96875 0.390625 C 18.15625 0.390625 20.285156 -0.28125 22.414062 -1.625 C 24.542969 -2.96875 26.113281 -4.875 27.175781 -7.226562 L 22.695312 -7.226562 C 21.796875 -6.050781 20.734375 -5.15625 19.445312 -4.484375 C 18.15625 -3.808594 16.808594 -3.53125 15.410156 -3.53125 C 13.28125 -3.53125 11.375 -4.203125 9.695312 -5.601562 C 8.011719 -6.949219 6.949219 -8.683594 6.613281 -10.816406 L 28.296875 -10.816406 Z M 24.152344 -14.175781 L 6.667969 -14.175781 C 6.890625 -15.183594 7.285156 -16.136719 7.84375 -17.035156 C 9.636719 -19.949219 12.160156 -21.40625 15.410156 -21.40625 C 17.484375 -21.40625 19.332031 -20.734375 20.957031 -19.386719 C 22.636719 -17.988281 23.648438 -16.25 24.152344 -14.175781 Z M 24.152344 -14.175781 "/></g></g></g></svg>